<svg xmlns="http://www.w3.org/2000/svg" viewBox="0 0 64 64" role="img" aria-label="LockHelp">
  <defs>
    <linearGradient id="bg" x1="0" y1="0" x2="1" y2="1">
      <stop offset="0%" stop-color="#17120d"/>
      <stop offset="100%" stop-color="#0c0907"/>
    </linearGradient>
    <linearGradient id="gold" x1="0" y1="0" x2="1" y2="1">
      <stop offset="0%" stop-color="#f2c86a"/>
      <stop offset="100%" stop-color="#c69333"/>
    </linearGradient>
    <filter id="shadow" x="-20%" y="-20%" width="140%" height="140%">
      <feDropShadow dx="0" dy="4" stdDeviation="4" flood-color="#000000" flood-opacity="0.28"/>
    </filter>
  </defs>

  <rect x="4" y="4" width="56" height="56" rx="18" fill="url(#bg)"/>
  <rect x="5" y="5" width="54" height="54" rx="17" fill="none" stroke="rgba(242,200,106,0.35)"/>
  <circle cx="32" cy="32" r="18" fill="none" stroke="url(#gold)" stroke-width="2.5" opacity="0.9"/>

  <g filter="url(#shadow)">
    <path d="M24 29v-4c0-4.8 3.5-8.5 8-8.5s8 3.7 8 8.5v4" fill="none" stroke="url(#gold)" stroke-width="4" stroke-linecap="round"/>
    <rect x="22" y="28" width="20" height="18" rx="5" fill="url(#gold)"/>
    <path d="M32 33.5c-2 0-3.6 1.6-3.6 3.6 0 1.4.8 2.6 2 3.2v3.1h3.2v-3.1c1.2-.6 2-1.8 2-3.2 0-2-1.6-3.6-3.6-3.6z" fill="#17120d"/>
  </g>
</svg>
